<?xml version="1.0" standalone="no"?>
<!DOCTYPE svg PUBLIC "-//W3C//DTD SVG 20010904//EN"
 "http://www.w3.org/TR/2001/REC-SVG-20010904/DTD/svg10.dtd">
<svg version="1.0" xmlns="http://www.w3.org/2000/svg"
 width="40.000000pt" height="40.000000pt" viewBox="0 0 1024.000000 1024.000000"
 preserveAspectRatio="xMidYMid meet">

<g transform="translate(0.000000,1024.000000) scale(0.100000,-0.100000)"
stroke="none">
<path d="M0 5120 l0 -5120 5120 0 5120 0 0 5120 0 5120 -5120 0 -5120 0 0
-5120z m5570 3237 c976 -162 1852 -757 2362 -1607 568 -945 654 -2047 238
-3058 -125 -305 -298 -600 -507 -862 -85 -106 -380 -404 -493 -496 -495 -406
-1088 -662 -1705 -738 -440 -54 -919 -9 -1343 126 -1168 371 -2042 1322 -2316
2518 -172 755 -81 1526 267 2251 165 342 460 735 757 1006 359 327 767 569
1220 725 239 82 441 125 760 162 19 2 163 3 320 1 251 -2 304 -6 440 -28z"/>
<path d="M4940 8023 c-30 -2 -111 -10 -180 -19 -681 -87 -1294 -392 -1779
-883 -453 -460 -734 -993 -845 -1601 -81 -444 -51 -968 80 -1400 63 -208 226
-572 304 -679 42 -57 46 -49 60 110 20 236 48 366 100 469 35 70 109 169 148
197 l30 22 6 -47 c3 -26 8 -85 11 -132 22 -311 88 -661 155 -826 20 -50 112
-238 204 -417 l167 -327 72 -48 c203 -137 501 -285 722 -360 595 -202 1228
-197 1815 15 216 77 583 270 714 375 46 37 388 717 434 863 36 116 75 301 96
465 14 106 36 354 36 407 0 31 12 29 54 -7 77 -68 162 -234 190 -371 8 -41 23
-151 31 -245 9 -93 20 -173 25 -178 21 -21 201 317 279 525 150 400 222 866
192 1254 -43 558 -224 1064 -544 1525 -168 241 -447 534 -662 696 -586 439
-1254 655 -1915 617z m287 -264 c311 -41 618 -243 761 -499 45 -81 102 -217
102 -247 0 -23 -2 -23 -112 -23 l-113 0 -40 73 c-61 110 -206 251 -315 307
-106 54 -165 60 -206 19 -56 -56 -29 -126 65 -170 68 -32 162 -101 213 -158
53 -58 118 -180 144 -266 27 -91 25 -258 -5 -355 -65 -214 -224 -379 -428
-446 -80 -26 -101 -29 -228 -29 -162 0 -235 17 -368 88 -88 47 -88 47 -166
-26 l-41 -37 -14 32 c-7 18 -52 71 -100 117 -47 46 -86 85 -86 86 0 1 14 8 30
15 41 17 90 75 90 106 0 14 -11 36 -25 49 -22 23 -31 25 -127 25 l-103 0 -153
-135 c-85 -74 -158 -135 -162 -135 -14 0 -57 61 -76 106 -9 21 -18 66 -20 99
-3 57 -4 60 -32 66 -137 28 -195 193 -103 292 53 58 41 57 537 57 403 0 455
-2 450 -15 -13 -36 -17 -144 -7 -200 35 -187 173 -331 366 -380 237 -60 498
92 561 329 58 216 -47 436 -257 542 -63 31 -86 37 -159 42 -108 6 -178 -9
-275 -59 l-78 -40 -341 1 -341 0 3 22 c10 74 66 201 138 309 51 78 200 224
280 275 220 141 482 198 741 163z m1292 -1020 c27 -19 50 -47 63 -76 18 -41
19 -52 9 -99 -15 -67 -78 -130 -141 -140 l-40 -7 0 -51 c0 -112 -52 -204 -139
-248 -45 -23 -68 -28 -128 -28 -50 0 -75 -4 -77 -12 -71 -267 -150 -412 -316
-579 -147 -148 -316 -243 -504 -284 -108 -24 -301 -17 -401 15 -151 48 -313
154 -407 268 -27 31 -48 60 -48 63 0 4 64 68 143 142 l143 136 66 -24 c121
-44 219 -58 357 -52 145 6 223 24 338 77 288 134 466 386 502 710 5 47 6 115
2 153 l-7 67 271 0 272 0 42 -31z m-2313 -721 c101 -95 134 -141 134 -188 0
-41 37 -2 -375 -395 -121 -116 -277 -265 -347 -333 -142 -137 -183 -161 -271
-162 -91 0 -168 46 -210 125 -30 56 -30 164 0 220 27 51 57 79 293 272 107 87
255 208 329 268 74 61 176 145 229 188 56 46 104 77 117 77 15 0 51 -26 101
-72z m307 -870 c12 -6 96 -75 187 -153 91 -77 186 -158 212 -180 51 -42 73
-82 63 -114 -3 -12 -57 -85 -119 -164 -62 -78 -138 -177 -170 -219 -64 -85
-88 -100 -116 -72 -17 17 -73 159 -205 517 l-47 129 22 86 c25 103 52 149 94
168 39 17 52 17 79 2z m1200 -2 c66 -27 97 -89 114 -226 4 -39 -6 -74 -70
-250 -139 -379 -156 -420 -185 -433 -23 -11 -27 -9 -53 23 -283 357 -339 434
-339 465 0 34 34 71 165 180 33 27 106 89 162 138 94 80 145 117 166 117 4 0
22 -6 40 -14z m-1564 -343 c5 -10 47 -126 94 -258 186 -523 379 -991 634
-1534 87 -184 95 -207 85 -233 -8 -21 -343 -590 -358 -607 -5 -5 -133 27 -263
66 -239 72 -549 218 -748 355 l-63 43 -165 333 c-180 363 -201 415 -239 602
-45 223 -82 595 -74 749 l3 64 410 169 c226 93 462 191 525 217 130 55 145 58
159 34z m2068 -56 c98 -41 291 -120 428 -176 138 -57 299 -123 358 -148 l108
-45 -6 -117 c-22 -435 -79 -781 -159 -968 -18 -43 -99 -209 -179 -369 -163
-326 -147 -305 -322 -412 -216 -132 -477 -240 -744 -308 l-134 -34 -16 22 c-9
12 -96 154 -193 316 -176 292 -177 294 -164 326 8 17 57 123 111 236 240 508
457 1038 631 1540 35 102 66 191 69 198 2 6 11 12 19 12 8 0 94 -33 193 -73z
m-1076 -337 c15 0 133 -152 168 -218 13 -25 -29 -206 -53 -230 -14 -14 -41
-17 -175 -17 -139 0 -161 2 -179 18 -20 18 -62 161 -62 210 0 30 148 234 175
241 11 2 40 2 64 0 24 -2 52 -4 62 -4z m-2 -692 c18 -55 68 -312 64 -325 -6
-15 -88 -43 -129 -43 -18 0 -53 9 -78 20 -43 18 -45 21 -40 52 5 27 36 181 61
301 5 25 9 27 58 27 51 0 54 -1 64 -32z m65 -1326 c131 -216 151 -250 144
-257 -20 -21 -538 -15 -538 6 0 5 59 108 132 230 106 178 134 217 144 207 7
-7 60 -91 118 -186z"/>
</g>
</svg>
